PathFileType	4	(x/y/z)	S04_PSF_T10.trc
DataRate	CameraRate	NumFrames	NumMarkers	Units	OrigDataRate	OrigDataStartFrame	OrigNumFrames
240	240	9	51	mm	240	54	425
Frame#	Time	Sternum			R.Acromium			L.Acromium			Top.Head			R.ASIS			L.ASIS			R.PSIS			L.PSIS			R.Great.Tro			L.Great.Tro			R.Iliac.Crest			L.Iliac.Crest			V.Sacral			R.Thigh.Upper.Post			R.Thigh.Lower.Ant			R.Thigh.Lower.Post			R.Thigh.Upper.Ant			R.Knee.Lat			R.Knee.Med			R.Shank.Upper.Post			R.Shank.Lower.Ant			R.Shank.Lower.Post			R.Shank.Upper.Ant			R.Ankle.Lat			R.Ankle.Med			R.Heel.Upper			R.Heel.Med			R.Heel.Lat			R.Toe.Lat			R.Toe.Med			R.Toe.Tip			L.Thigh.Upper.Post			L.Thigh.Lower.Ant			L.Thigh.Lower.Post			L.Thigh.Upper.Ant			L.Knee.Lat			L.Knee.Med			L.Shank.Upper.Post			L.Shank.Lower.Ant			L.Shank.Lower.Post			L.Shank.Upper.Ant			L.Ankle.Lat			L.Ankle.Med			L.Heel.Upper			L.Heel.Med			L.Heel.Lat			L.Toe.Lat			L.Toe.Med			L.Toe.Tip			Cervical.Spine			Back			
		X1	Y1	Z1	X2	Y2	Z2	X3	Y3	Z3	X4	Y4	Z4	X5	Y5	Z5	X6	Y6	Z6	X7	Y7	Z7	X8	Y8	Z8	X9	Y9	Z9	X10	Y10	Z10	X11	Y11	Z11	X12	Y12	Z12	X13	Y13	Z13	X14	Y14	Z14	X15	Y15	Z15	X16	Y16	Z16	X17	Y17	Z17	X18	Y18	Z18	X19	Y19	Z19	X20	Y20	Z20	X21	Y21	Z21	X22	Y22	Z22	X23	Y23	Z23	X24	Y24	Z24	X25	Y25	Z25	X26	Y26	Z26	X27	Y27	Z27	X28	Y28	Z28	X29	Y29	Z29	X30	Y30	Z30	X31	Y31	Z31	X32	Y32	Z32	X33	Y33	Z33	X34	Y34	Z34	X35	Y35	Z35	X36	Y36	Z36	X37	Y37	Z37	X38	Y38	Z38	X39	Y39	Z39	X40	Y40	Z40	X41	Y41	Z41	X42	Y42	Z42	X43	Y43	Z43	X44	Y44	Z44	X45	Y45	Z45	X46	Y46	Z46	X47	Y47	Z47	X48	Y48	Z48	X49	Y49	Z49	X50	Y50	Z50	X51	Y51	Z51	

54	0.22083	-1145.3	1273.5	261.01	-1270.2	1504.1	437.88	-1293.4	1481.2	88.574	-1252	1826.7	239.17	-1178.1	982.53	408.66	-1167.8	1011	159.69	NaN	NaN	NaN	NaN	NaN	NaN	-1279.1	900.03	464.73	-1273.9	924.48	87.947	-1269.7	1082.9	447.97	-1274.8	1086.5	112.62	-1408.9	987.51	258.47	-1256.1	639.56	453.94	-1172.4	561.21	432.15	-1248.8	549.64	440.38	-1173.1	671.3	449.94	-1234.5	482.81	433.79	-1239.2	482.84	302.46	-1444.4	394.26	421.58	-1517.1	279.01	394.87	-1504.3	352.92	408.52	-1408.6	336.82	410.1	-1589.2	276.51	388.54	-1553.1	256.58	305.83	-1640.7	305.75	325.81	-1654.1	280.57	294.78	-1671.7	288.14	356.36	-1595.7	145.04	424.13	-1551.7	108.79	314.6	-1505.9	69.719	366.99	-1237.3	683.92	102.62	-1136	609.57	114.5	-1208.6	600.87	120.63	-1169.6	691.82	94.518	-1148.3	516.03	132.91	-1149	509.54	255.85	-1222.9	333.64	133.36	-1152.6	249.1	143.17	-1216.1	255.39	144.28	-1161.1	324.7	132.61	-1177.5	98.576	164.95	-1171	110.67	256.47	-1249	69.429	211.78	-1243.1	46.202	245.84	-1248.1	41.608	184.96	-1062.9	42.798	145.52	-1031.7	51.112	261.44	-974.51	62.861	211.7	-1330.5	1547.1	268.37	-1414.2	1289.4	260.54
55	0.225	-1140.1	1274.5	260.97	-1264.6	1504.9	437.54	-1287.7	1482.1	88.295	-1246.4	1827.6	238.94	-1172.8	983.63	408.39	-1162.9	1011.7	159.4	NaN	NaN	NaN	NaN	NaN	NaN	-1273.1	900.99	464.58	-1269	925.19	87.842	-1264.2	1083.8	447.72	-1269.3	1087.4	112.4	-1403.6	988.41	258.38	-1247	640.63	453.85	-1162.6	563.31	431.88	-1238.7	550.77	440.27	-1164.6	673.39	449.74	-1223.7	484.29	433.54	-1228.8	484.44	302.13	-1433.2	394.89	421.05	-1504.6	279.67	394.55	-1493	353.27	408.06	-1397.3	337.61	409.84	-1577.2	276.36	388.06	-1541.1	256.4	305.44	-1629.3	304.76	325.16	-1642.4	279.17	294.3	-1660.1	287.12	355.76	-1582.7	145.31	424.49	-1538.4	108.66	315.16	-1492.3	70.184	367.58	-1233.9	684.55	102.59	-1133.2	609.42	114.49	-1205.9	601.29	120.56	-1166.3	691.93	94.483	-1146.3	515.92	132.94	-1147	509.48	255.9	-1221.9	333.87	133.56	-1151.9	249.01	143.23	-1215.2	255.64	144.41	-1160.1	324.65	132.7	-1177.4	98.714	165.15	-1170.8	110.69	256.67	-1249	69.543	211.89	-1243	46.245	245.91	-1248	41.777	185	-1062.9	42.796	145.5	-1031.6	50.828	261.46	-974.43	62.517	211.7	-1324.8	1547.9	267.99	-1408.8	1290.3	259.98
56	0.22917	-1134.9	1275.4	260.94	-1259.1	1505.7	437.2	-1281.9	1483	88.026	-1240.9	1828.4	238.73	-1167.5	984.75	408.12	-1157.8	1012.5	159.09	NaN	NaN	NaN	NaN	NaN	NaN	-1267.1	901.99	464.46	-1264	925.91	87.75	-1258.7	1084.7	447.49	-1263.9	1088.3	112.18	-1398.3	989.32	258.31	-1238.1	641.76	453.79	-1152.9	565.48	431.61	-1228.7	551.99	440.18	-1156.1	675.53	449.55	-1213	485.83	433.28	-1218.3	486.11	301.82	-1422	395.35	420.54	-1491.2	280.32	394.17	-1481.5	353.39	407.63	-1385.9	338.3	409.6	-1565.1	275.87	387.62	-1529	255.96	305.06	-1617.8	303.4	324.56	-1630.5	277.39	293.85	-1648.3	285.67	355.21	-1569.4	145.22	424.8	-1524.7	108.31	315.64	-1478.3	70.472	368.11	-1230.7	685.19	102.56	-1130.5	609.27	114.49	-1203.3	601.71	120.49	-1163	692.04	94.453	-1144.3	515.82	132.97	-1145.2	509.41	255.95	-1220.9	334.08	133.77	-1151.3	248.93	143.3	-1214.4	255.89	144.55	-1159.2	324.61	132.79	-1177.3	98.856	165.35	-1170.7	110.72	256.88	-1248.9	69.667	211.99	-1243	46.292	245.97	-1248	41.95	185.04	-1062.8	42.793	145.49	-1031.5	50.551	261.49	-974.36	62.185	211.69	-1319.1	1548.8	267.62	-1403.5	1291.2	259.42
57	0.23333	-1129.7	1276.3	260.9	-1253.6	1506.5	436.87	-1276.2	1484	87.767	-1235.3	1829.3	238.55	-1162.2	985.87	407.85	-1152.6	1013.2	158.77	NaN	NaN	NaN	NaN	NaN	NaN	-1261.2	903.02	464.36	-1259.1	926.62	87.67	-1253.1	1085.7	447.26	-1258.4	1089.1	111.97	-1393	990.23	258.28	-1229.1	642.95	453.75	-1143.3	567.71	431.32	-1218.7	553.28	440.12	-1147.6	677.7	449.37	-1202.4	487.43	433.03	-1208	487.83	301.53	-1410.8	395.65	420.05	-1476.9	280.94	393.72	-1470	353.28	407.2	-1374.5	338.87	409.38	-1552.7	275.03	387.22	-1516.8	255.27	304.7	-1606.2	301.67	324.03	-1618.5	275.26	293.44	-1636.4	283.81	354.73	-1555.7	144.79	425.09	-1510.7	107.74	316.06	-1463.9	70.59	368.6	-1227.5	685.83	102.54	-1127.9	609.11	114.49	-1200.7	602.14	120.42	-1159.8	692.14	94.431	-1142.5	515.73	133	-1143.4	509.35	256.01	-1220	334.27	134.01	-1150.7	248.87	143.36	-1213.6	256.15	144.7	-1158.3	324.57	132.88	-1177.2	99.001	165.54	-1170.5	110.75	257.08	-1248.9	69.802	212.09	-1243	46.345	246.04	-1247.9	42.124	185.09	-1062.8	42.79	145.48	-1031.4	50.28	261.52	-974.28	61.862	211.69	-1313.4	1549.6	267.26	-1398.2	1292.1	258.87
58	0.2375	-1124.5	1277.2	260.86	-1248.2	1507.3	436.55	-1270.5	1484.9	87.518	-1229.8	1830.1	238.39	-1156.9	986.99	407.58	-1147.4	1014	158.44	NaN	NaN	NaN	NaN	NaN	NaN	-1255.2	904.08	464.28	-1254.2	927.32	87.6	-1247.5	1086.6	447.05	-1253	1090	111.77	-1387.7	991.15	258.27	-1220.3	644.2	453.73	-1133.7	569.98	431.01	-1208.8	554.63	440.07	-1139.2	679.91	449.19	-1191.9	489.08	432.78	-1197.8	489.6	301.26	-1399.6	395.78	419.59	-1461.9	281.52	393.23	-1458.4	352.94	406.8	-1363	339.33	409.19	-1540.2	273.87	386.86	-1504.4	254.35	304.34	-1594.5	299.59	323.56	-1606.4	272.78	293.07	-1624.4	281.56	354.31	-1541.7	144.02	425.35	-1496.4	106.97	316.41	-1449.2	70.552	369.05	-1224.4	686.46	102.54	-1125.3	608.95	114.5	-1198.2	602.57	120.35	-1156.6	692.23	94.417	-1140.7	515.64	133.03	-1141.7	509.28	256.07	-1219.2	334.45	134.26	-1150.1	248.82	143.42	-1212.9	256.41	144.86	-1157.5	324.54	132.97	-1177	99.149	165.73	-1170.4	110.78	257.28	-1248.9	69.948	212.19	-1242.9	46.403	246.1	-1247.8	42.3	185.14	-1062.8	42.786	145.47	-1031.4	50.017	261.55	-974.2	61.55	211.69	-1307.8	1550.4	266.9	-1392.8	1293	258.32
59	0.24167	-1119.4	1278.1	260.83	-1242.8	1508.1	436.24	-1264.8	1485.8	87.279	-1224.2	1830.9	238.25	-1151.6	988.1	407.31	-1142.1	1014.7	158.09	NaN	NaN	NaN	NaN	NaN	NaN	-1249.3	905.15	464.21	-1249.4	928.01	87.541	-1241.8	1087.5	446.84	-1247.6	1090.8	111.57	-1382.4	992.06	258.29	-1211.5	645.5	453.75	-1124.2	572.3	430.7	-1199	556.05	440.05	-1130.9	682.14	449.02	-1181.5	490.78	432.53	-1187.6	491.41	301.02	-1388.4	395.75	419.16	-1446.2	282.02	392.69	-1446.8	352.38	406.41	-1351.5	339.67	409.01	-1527.5	272.39	386.55	-1491.9	253.18	304	-1582.6	297.17	323.14	-1594.1	269.98	292.74	-1612.2	278.92	353.95	-1527.4	142.93	425.58	-1481.8	106	316.7	-1434.2	70.371	369.48	-1221.3	687.1	102.55	-1122.8	608.78	114.5	-1195.7	603	120.28	-1153.5	692.31	94.412	-1138.9	515.56	133.07	-1140.1	509.22	256.13	-1218.5	334.61	134.54	-1149.6	248.78	143.48	-1212.2	256.68	145.03	-1156.7	324.52	133.07	-1176.9	99.301	165.92	-1170.3	110.81	257.48	-1248.9	70.105	212.29	-1242.9	46.466	246.17	-1247.7	42.478	185.18	-1062.7	42.782	145.46	-1031.3	49.761	261.58	-974.13	61.247	211.69	-1302.3	1551.3	266.56	-1387.5	1293.9	257.77
60	0.24583	-1114.2	1279	260.8	-1237.5	1508.9	435.94	-1259.1	1486.7	87.049	-1218.6	1831.7	238.14	-1146.3	989.21	407.03	-1136.8	1015.4	157.74	NaN	NaN	NaN	NaN	NaN	NaN	-1243.4	906.24	464.16	-1244.6	928.68	87.49	-1236.1	1088.4	446.63	-1242.2	1091.7	111.38	-1377.1	992.97	258.33	-1202.7	646.84	453.78	-1114.7	574.65	430.37	-1189.2	557.51	440.05	-1122.5	684.38	448.85	-1171.1	492.51	432.28	-1177.5	493.23	300.81	-1377.2	395.56	418.76	-1430.1	282.44	392.14	-1435	351.59	406.05	-1340	339.9	408.85	-1514.6	270.61	386.28	-1479.2	251.8	303.68	-1570.7	294.43	322.8	-1581.7	266.86	292.44	-1599.9	275.91	353.67	-1512.8	141.54	425.78	-1466.8	104.85	316.94	-1418.9	70.063	369.89	-1218.2	687.73	102.58	-1120.4	608.62	114.51	-1193.3	603.43	120.22	-1150.4	692.39	94.418	-1137.3	515.49	133.11	-1138.5	509.16	256.19	-1217.9	334.77	134.83	-1149	248.76	143.53	-1211.5	256.94	145.2	-1155.9	324.52	133.16	-1176.8	99.455	166.1	-1170.1	110.84	257.68	-1248.9	70.273	212.39	-1242.8	46.535	246.23	-1247.7	42.656	185.23	-1062.7	42.779	145.46	-1031.2	49.514	261.62	-974.05	60.954	211.68	-1296.7	1552.1	266.22	-1382.2	1294.8	257.22
61	0.25	-1109.1	1279.9	260.78	-1232.3	1509.7	435.65	-1253.4	1487.7	86.83	-1213.1	1832.5	238.04	-1141	990.31	406.75	-1131.5	1016.1	157.39	NaN	NaN	NaN	NaN	NaN	NaN	-1237.5	907.34	464.11	-1239.9	929.35	87.448	-1230.4	1089.3	446.43	-1236.9	1092.5	111.19	-1371.9	993.86	258.4	-1194	648.21	453.84	-1105.4	577.02	430.03	-1179.6	559.03	440.06	-1114.3	686.64	448.68	-1160.8	494.27	432.04	-1167.4	495.05	300.64	-1366	395.2	418.39	-1413.6	282.75	391.58	-1423.2	350.59	405.71	-1328.4	340	408.7	-1501.6	268.55	386.06	-1466.4	250.19	303.38	-1558.6	291.37	322.5	-1569.1	263.44	292.18	-1587.5	272.55	353.44	-1497.8	139.86	425.97	-1451.6	103.53	317.13	-1403.3	69.646	370.29	-1215.2	688.36	102.64	-1118	608.44	114.53	-1191	603.87	120.17	-1147.4	692.46	94.437	-1135.6	515.43	133.15	-1137	509.11	256.25	-1217.3	334.92	135.13	-1148.5	248.75	143.59	-1210.8	257.22	145.39	-1155.2	324.52	133.25	-1176.7	99.612	166.29	-1170	110.88	257.87	-1248.9	70.452	212.49	-1242.8	46.61	246.3	-1247.6	42.834	185.29	-1062.6	42.777	145.46	-1031.1	49.275	261.66	-973.97	60.671	211.69	-1291.3	1552.9	265.89	-1376.9	1295.7	256.68
62	0.25417	-1103.9	1280.8	260.77	-1227.1	1510.4	435.38	-1247.7	1488.6	86.62	-1207.5	1833.3	237.97	-1135.7	991.4	406.47	-1126.2	1016.8	157.02	NaN	NaN	NaN	NaN	NaN	NaN	-1231.6	908.44	464.07	-1235.2	930	87.416	-1224.6	1090.2	446.24	-1231.5	1093.3	111.01	-1366.6	994.74	258.49	-1185.4	649.62	453.93	-1096.1	579.4	429.68	-1170	560.59	440.09	-1106.1	688.91	448.51	-1150.6	496.05	431.8	-1157.3	496.88	300.5	-1354.7	394.68	418.06	-1396.9	282.93	391.02	-1411.2	349.37	405.39	-1316.7	339.99	408.58	-1488.5	266.22	385.88	-1453.5	248.38	303.1	-1546.4	288.01	322.27	-1556.4	259.73	291.95	-1574.9	268.86	353.27	-1482.6	137.91	426.14	-1436.1	102.06	317.29	-1387.4	69.133	370.7	-1212.2	688.99	102.72	-1115.7	608.27	114.55	-1188.6	604.32	120.12	-1144.4	692.52	94.47	-1134.1	515.37	133.19	-1135.5	509.06	256.32	-1216.8	335.07	135.44	-1148	248.76	143.64	-1210.2	257.49	145.57	-1154.5	324.54	133.35	-1176.6	99.771	166.46	-1169.9	110.91	258.07	-1249	70.642	212.59	-1242.8	46.69	246.36	-1247.5	43.012	185.34	-1062.6	42.775	145.47	-1031	49.045	261.71	-973.9	60.398	211.69	-1285.8	1553.7	265.58	-1371.6	1296.6	256.15
